<?xml version="1.0" encoding="UTF-8" standalone="no"?>
<svg
   xmlns:dc="http://purl.org/dc/elements/1.1/"
   xmlns:cc="http://creativecommons.org/ns#"
   xmlns:rdf="http://www.w3.org/1999/02/22-rdf-syntax-ns#"
   xmlns:svg="http://www.w3.org/2000/svg"
   xmlns="http://www.w3.org/2000/svg"
   viewBox="0 0 258.66666 258.66666"
   height="258.66666"
   width="258.66666"
   xml:space="preserve"
   id="svg2"
   version="1.1"><metadata
     id="metadata8"><rdf:RDF><cc:Work
         rdf:about=""><dc:format>image/svg+xml</dc:format><dc:type
           rdf:resource="http://purl.org/dc/dcmitype/StillImage" /></cc:Work></rdf:RDF></metadata><defs
     id="defs6" /><g
     transform="matrix(1.3333333,0,0,-1.3333333,0,258.66667)"
     id="g10"><g
       transform="scale(0.1)"
       id="g12"><path
         id="path14"
         style="fill:#ffffff;fill-opacity:1;fill-rule:evenodd;stroke:none"
         d="M 2.59766,1933.23 H 1930.16 V 5.66797 H 2.59766 V 1933.23" /><path
         id="path16"
         style="fill:#ffffff;fill-opacity:1;fill-rule:evenodd;stroke:none"
         d="m 114.234,922.199 c 133.637,-183.285 547.411,-244.457 831.09,-244.457 282.566,0 771.476,74.688 874.306,252.653 -61.17,-194.364 -364.13,-347.063 -874.306,-347.063 -519.707,0 -800.285,199.906 -831.09,338.867" /><path
         id="path18"
         style="fill:#f6f6f6;fill-opacity:1;fill-rule:evenodd;stroke:none"
         d="m 945.324,587.32 c -516.828,0 -799.398,196.805 -831.09,334.879 133.637,-183.285 547.411,-244.457 831.09,-244.457 282.126,0 769.926,74.688 873.866,251.992 -1.99,-6.871 -4.43,-13.3 -6.87,-19.281 C 1737.63,728.496 1435.56,587.32 945.324,587.32" /><path
         id="path20"
         style="fill:#f0efef;fill-opacity:1;fill-rule:evenodd;stroke:none"
         d="m 945.324,591.309 c -513.726,-0.442 -798.511,193.48 -831.09,330.89 133.637,-183.285 547.411,-244.457 831.09,-244.457 281.466,0 768.376,74.246 873.196,250.66 -1.77,-5.539 -3.76,-11.523 -5.76,-17.066 C 1739.18,732.043 1434.01,591.531 945.324,591.309" /><path
         id="path22"
         style="fill:#e7e6e6;fill-opacity:1;fill-rule:evenodd;stroke:none"
         d="M 945.324,595.301 C 434.48,594.855 147.477,785.676 114.234,922.199 247.871,738.914 661.645,677.742 945.324,677.742 c 281.016,0 766.376,74.246 872.316,249.996 -1.33,-5.32 -2.44,-10.414 -4.43,-15.293 -72.48,-177.3 -380.76,-316.922 -867.886,-317.144" /><path
         id="path24"
         style="fill:#e0e0e0;fill-opacity:1;fill-rule:evenodd;stroke:none"
         d="m 945.324,599.289 c -508.187,-0.441 -796.961,187.274 -831.09,322.91 133.637,-183.285 547.411,-244.457 831.09,-244.457 280.576,0 764.606,74.028 871.876,249.11 -0.89,-4.653 -2,-9.086 -3.55,-13.079 -71.14,-174.859 -382.97,-313.82 -868.326,-314.484" /><path
         id="path26"
         style="fill:#d7d7d7;fill-opacity:1;fill-rule:evenodd;stroke:none"
         d="M 945.324,603.281 C 440.02,602.395 149.25,787.227 114.234,922.199 247.871,738.914 661.645,677.742 945.324,677.742 c 280.136,0 763.056,73.582 870.986,248.004 -0.22,-3.547 -1.11,-7.762 -2.22,-11.305 -70.47,-171.984 -384.96,-310.496 -868.766,-311.16" /><path
         id="path28"
         style="fill:#d1d0d0;fill-opacity:1;fill-rule:evenodd;stroke:none"
         d="m 945.324,607.27 c -502.203,-0.887 -795.41,180.843 -831.09,314.929 133.637,-183.285 547.411,-244.457 831.09,-244.457 279.466,0 761.056,73.582 870.766,247.113 -0.45,-3.101 -0.89,-6.425 -1.78,-9.085 -69.15,-170.207 -386.73,-307.836 -868.986,-308.5" /><path
         id="path30"
         style="fill:#cac9c9;fill-opacity:1;fill-rule:evenodd;stroke:none"
         d="m 945.324,611.258 c -499.32,-0.887 -794.523,177.519 -831.09,310.941 133.637,-183.285 547.411,-244.457 831.09,-244.457 279.026,0 759.506,73.141 869.876,246.449 0.44,-2.878 0,-5.316 -0.44,-7.312 C 1746.72,749.332 1426.03,612.367 945.324,611.258" /><path
         id="path32"
         style="fill:#c1c0c1;fill-opacity:1;fill-rule:evenodd;stroke:none"
         d="M 945.324,615.246 C 448.887,614.359 151.465,790.109 114.234,922.199 247.871,738.914 661.645,677.742 945.324,677.742 c 278.586,0 757.956,72.696 869.436,245.121 0.44,-1.55 0.44,-3.547 0.44,-5.097 -66.71,-164.891 -390.95,-301.411 -869.876,-302.52" /><path
         id="path34"
         style="fill:#bbbaba;fill-opacity:1;fill-rule:evenodd;stroke:none"
         d="M 945.324,619.68 C 451.988,618.129 152.352,790.773 114.234,922.199 247.871,738.914 661.645,677.742 945.324,677.742 c 278.136,0 755.966,72.696 868.766,244.457 0.67,-1.332 1.11,-2.441 1.55,-3.324 C 1750.04,755.977 1422.7,620.789 945.324,619.68" /><path
         id="path36"
         style="fill:#b2b1b1;fill-opacity:1;fill-rule:evenodd;stroke:none"
         d="M 945.324,623.668 C 454.867,622.117 153.238,791.66 114.234,922.199 247.871,738.914 661.645,677.742 945.324,677.742 c 277.476,0 754.186,72.25 868.326,243.571 1.11,-0.887 1.99,-1.333 2.44,-1.555 -64.5,-160.012 -394.5,-294.981 -870.766,-296.09" /><path
         id="path38"
         style="fill:#abaaaa;fill-opacity:1;fill-rule:evenodd;stroke:none"
         d="m 945.324,627.66 c -487.797,-1.551 -790.98,164.887 -831.09,294.539 133.637,-183.285 547.411,-244.457 831.09,-244.457 277.026,0 752.636,71.809 867.436,242.238 1.55,0.446 2.88,0.446 3.33,0.887 C 1753.14,763.293 1420.04,628.766 945.324,627.66" /><path
         id="path40"
         style="fill:#a3a1a1;fill-opacity:1;fill-rule:evenodd;stroke:none"
         d="m 945.324,631.648 c -484.918,-1.55 -790.09,161.563 -831.09,290.551 133.637,-183.285 547.411,-244.457 831.09,-244.457 276.586,0 750.636,71.809 866.776,241.574 1.99,0.664 3.54,1.551 4.21,2.883 -61.83,-155.804 -398.04,-289 -870.986,-290.551" /><path
         id="path42"
         style="fill:#9c9a9b;fill-opacity:1;fill-rule:evenodd;stroke:none"
         d="M 945.324,635.637 C 463.512,633.641 155.898,794.098 114.234,922.199 247.871,738.914 661.645,677.742 945.324,677.742 c 276.146,0 749.086,71.59 866.326,240.688 2,1.328 3.99,2.883 5.1,4.433 C 1756.02,770.164 1416.72,637.188 945.324,635.637" /><path
         id="path44"
         style="fill:#939192;fill-opacity:1;fill-rule:evenodd;stroke:none"
         d="M 945.324,639.625 C 466.391,637.633 156.785,794.762 114.234,922.199 247.871,738.914 661.645,677.742 945.324,677.742 c 275.476,0 747.536,71.145 865.446,239.582 2.88,2.434 4.87,4.43 6.43,6.867 -59.62,-150.484 -402.03,-282.57 -871.876,-284.566" /><path
         id="path46"
         style="fill:#8b8889;fill-opacity:1;fill-rule:evenodd;stroke:none"
         d="M 945.324,643.613 C 469.273,641.621 157.449,795.648 114.234,922.199 247.871,738.914 661.645,677.742 945.324,677.742 c 275.036,0 745.546,71.145 864.996,238.692 2.89,2.882 5.32,5.765 7.32,8.867 C 1759.13,776.809 1413.62,645.609 945.324,643.613" /><path
         id="path48"
         style="fill:#848182;fill-opacity:1;fill-rule:evenodd;stroke:none"
         d="M 945.324,647.602 C 472.375,645.164 158.336,796.535 114.234,922.199 247.871,738.914 661.645,677.742 945.324,677.742 c 274.596,0 743.766,70.699 864.336,238.028 3.1,3.105 5.98,6.648 8.42,10.418 C 1760.9,780.355 1411.84,650.043 945.324,647.602" /><path
         id="path50"
         style="fill:#7b7979;fill-opacity:1;fill-rule:evenodd;stroke:none"
         d="M 945.324,651.59 C 475.258,649.156 159.223,797.203 114.234,922.199 247.871,738.914 661.645,677.742 945.324,677.742 c 273.706,0 742.216,70.258 863.886,236.699 3.55,4.434 6.88,8.422 9.31,12.856 C 1762.45,784.125 1410.29,654.031 945.324,651.59" /><path
         id="path52"
         style="fill:#747272;fill-opacity:1;fill-rule:evenodd;stroke:none"
         d="M 945.324,655.582 C 477.918,653.145 159.887,798.086 114.234,922.199 247.871,738.914 661.645,677.742 945.324,677.742 c 273.486,0 740.226,70.258 863.006,236.031 3.99,4.657 7.76,9.532 10.42,14.629 C 1763.56,787.227 1408.74,658.02 945.324,655.582" /><path
         id="path54"
         style="fill:#6c696a;fill-opacity:1;fill-rule:evenodd;stroke:none"
         d="M 945.324,659.57 C 481.242,657.133 160.773,798.973 114.234,922.199 247.871,738.914 661.645,677.742 945.324,677.742 c 273.036,0 738.676,69.813 862.786,235.149 3.99,5.093 7.98,10.859 11.08,16.398 -54.08,-138.516 -412,-266.836 -873.866,-269.719" /><path
         id="path56"
         style="fill:#656263;fill-opacity:1;fill-rule:evenodd;stroke:none"
         d="m 114.234,922.199 c 133.637,-183.285 547.411,-244.457 831.09,-244.457 282.566,0 771.476,74.688 874.306,252.653 C 1766.89,794.539 1405.64,666.441 945.324,663.563 483.902,660.902 161.438,800.082 114.234,922.199" /><path
         id="path58"
         style="fill:#deddde;fill-opacity:1;fill-rule:evenodd;stroke:none"
         d="m 87.6367,1003.09 c 0,-157.797 294.3163,-318.254 858.3513,-321.801 196.802,-1.328 903.342,42.332 899.132,347.071 -3.1,246.44 -614.34,339.08 -940.354,326 C 308.82,1329.98 87.6367,1140.27 87.6367,1003.09" /><path
         id="path60"
         style="fill:#d3d2d2;fill-opacity:1;fill-rule:evenodd;stroke:none"
         d="m 846.477,681.289 c 239.353,-8.863 278.143,9.977 278.143,18.84 0,8.422 -289.003,4.211 -271.272,4.211 -259.743,0 -454.993,74.023 -454.993,58.066 0,-8.644 168.879,-70.699 448.122,-81.117" /><path
         id="path62"
         style="fill:#d5d4d5;fill-opacity:1;fill-rule:evenodd;stroke:none"
         d="m 440.465,751.988 c 0,13.961 154.25,-38.781 363.683,-46.761 15.961,-0.887 32.36,-1.11 49.2,-1.11 -16.176,0 244.902,3.547 244.902,-4.875 0,-3.547 -7.1,-9.086 -34.36,-13.297 -32.8,-5.543 -97.734,-8.644 -216.968,-4.656 -19.727,0.668 -38.563,1.996 -56.957,3.106 -217.633,14.406 -349.5,59.171 -349.5,67.593" /><path
         id="path64"
         style="fill:#d7d7d7;fill-opacity:1;fill-rule:evenodd;stroke:none"
         d="m 483.234,742.902 c 0,13.52 139.629,-31.25 326.012,-38.562 13.961,-0.223 28.813,-0.664 43.66,-0.664 -13.742,0 218.524,2.879 218.964,-5.321 0,-3.101 -5.98,-7.976 -29.92,-11.964 -30.14,-5.543 -87.981,-8.649 -194.36,-5.102 -17.512,0.668 -34.797,1.551 -51.195,2.66 -193.258,12.856 -313.161,50.977 -313.161,58.953" /><path
         id="path66"
         style="fill:#dad9d9;fill-opacity:1;fill-rule:evenodd;stroke:none"
         d="m 526.453,733.594 c 0,13.297 124.332,-23.051 287.668,-29.477 12.633,-0.441 25.488,-0.887 38.344,-0.887 -11.524,0 193.035,2.438 193.475,-5.539 0,-2.878 -5.32,-7.312 -26.81,-10.418 -26.157,-5.984 -77.13,-8.863 -171.099,-5.539 -15.515,0.223 -30.363,1.106 -44.769,1.993 -169.539,11.086 -276.809,41.89 -276.809,49.867" /><path
         id="path68"
         style="fill:#dcdbdb;fill-opacity:1;fill-rule:evenodd;stroke:none"
         d="m 569.227,724.508 c 0,12.414 109.703,-15.289 249.992,-20.832 10.859,-0.446 21.941,-0.446 33.246,-0.887 -9.531,0 166.665,1.551 167.105,-5.543 0,-2.879 -4.43,-6.426 -22.832,-9.531 -22.379,-5.981 -67.152,-8.863 -147.82,-5.981 -13.742,0.223 -26.816,0.664 -39.227,1.551 -145.609,9.973 -240.464,33.242 -240.464,41.223" /><path
         id="path70"
         style="fill:#deddde;fill-opacity:1;fill-rule:evenodd;stroke:none"
         d="m 614.883,716.75 c 0,12.191 91.972,-9.086 209.215,-13.52 9.082,-0.441 18.39,-0.441 27.922,-0.441 -7.09,-0.441 140.289,0.887 140.953,-6.426 0,-2.218 -3.547,-5.543 -18.614,-8.422 -18.839,-5.984 -57.183,-8.648 -125,-6.207 -11.746,0 -22.605,0.664 -32.8,1.106 -122.114,8.426 -201.676,25.711 -201.676,33.91" /><path
         id="path72"
         style="fill:#e0e0e0;fill-opacity:1;fill-rule:evenodd;stroke:none"
         d="m 658.32,709.219 c 0,11.301 76.461,-2.664 170.871,-6.43 7.317,-0.441 14.848,-0.441 22.829,-0.441 -5.543,-0.227 113.918,0 114.578,-6.653 0,-1.996 -2.657,-4.875 -14.848,-6.871 -14.848,-6.426 -46.984,-8.863 -102.168,-7.09 -9.086,0 -18.394,0.223 -26.816,1.106 -97.516,6.43 -164.446,17.953 -164.446,26.379" /><path
         id="path74"
         style="fill:#e2e2e2;fill-opacity:1;fill-rule:evenodd;stroke:none"
         d="m 700.871,704.117 c 0,10.641 62.055,1.11 133.195,-1.769 5.543,-0.227 11.528,-0.227 17.512,-0.227 -3.105,-0.441 88.207,-0.441 88.867,-6.867 0,-1.996 -1.992,-3.988 -11.078,-5.984 -11.304,-6.43 -36.789,-8.868 -78.898,-7.536 -7.535,0 -14.406,0.223 -20.832,0.664 -74.024,4.875 -128.766,13.297 -128.766,21.719" /><path
         id="path76"
         style="fill:#e5e4e4;fill-opacity:1;fill-rule:evenodd;stroke:none"
         d="m 745.641,699.242 c 0,9.977 45.211,4.434 93.523,2.879 3.992,-0.441 8.203,-0.441 12.191,-0.441 -0.886,-0.442 61.833,-1.328 62.719,-7.313 0,-1.109 -1.105,-3.101 -7.535,-4.656 -7.312,-6.426 -26.148,-8.422 -55.629,-7.977 -5.316,0 -10.414,0 -14.847,0.223 -50.086,3.324 -90.422,8.863 -90.422,17.285" /><path
         id="path78"
         style="fill:#e7e6e6;fill-opacity:1;fill-rule:evenodd;stroke:none"
         d="m 789.301,692.816 c 0,9.532 29.918,9.532 54.738,8.864 2.438,-0.442 4.434,-0.442 7.316,-0.442 0.665,-0.445 35.02,-1.55 36.348,-7.539 0,-0.883 -2.437,-2.879 -5.543,-5.984 -5.316,-5.317 -14.183,-5.981 -30.805,-5.981 -3.324,0 -5.984,0 -8.421,0 -26.375,1.551 -53.633,2.661 -53.633,11.082" /><path
         id="path80"
         style="fill:#e9e9e9;fill-opacity:1;fill-rule:evenodd;stroke:none"
         d="m 849.359,681.289 c 1.996,0 12.411,0.668 12.411,9.531 0,8.868 -10.415,9.973 -12.411,9.973 -1.992,0 -15.293,0 -15.293,-8.645 0,-8.421 13.301,-10.859 15.293,-10.859" /><path
         id="path82"
         style="fill:#f4f4f4;fill-opacity:1;fill-rule:evenodd;stroke:none"
         d="m 940.891,1338.85 c 180.179,2.22 882.289,-53.63 890.709,-301.41 C 1839.13,815.375 1241.86,708.105 957.957,710.543 474.371,714.094 78.3281,854.156 99.1641,1030.79 125.535,1257.07 659.207,1334.64 940.891,1338.85" /><path
         id="path84"
         style="fill:#a7a5a6;fill-opacity:1;fill-rule:evenodd;stroke:none"
         d="m 145.039,1124.32 c -12.633,-15.29 -39.008,-50.09 -41.887,-73.58 -3.9879,23.49 25.266,55.63 41.887,73.58" /><path
         id="path86"
         style="fill:#d3d2d2;fill-opacity:1;fill-rule:evenodd;stroke:none"
         d="m 1359.09,751.988 c 101.95,20.168 404.91,98.18 459.66,222.067 C 1846,844.406 1440.43,692.816 1359.09,751.988" /><path
         id="path88"
         style="fill:#cac9c9;fill-opacity:1;fill-rule:evenodd;stroke:none"
         d="m 1363.97,752.875 c 100.4,20.391 394.05,95.52 452.12,217.191 1.11,-4.433 1.99,-9.086 1.99,-13.519 -10.86,-121.668 -374.1,-253.758 -454.11,-203.672" /><path
         id="path90"
         style="fill:#bfbebe;fill-opacity:1;fill-rule:evenodd;stroke:none"
         d="m 1368.63,753.984 c 98.84,20.391 383.41,92.86 444.13,211.649 1.55,-3.547 2.44,-7.09 2.88,-10.633 -14.85,-118.129 -364.79,-244.898 -447.01,-201.016" /><path
         id="path92"
         style="fill:#b6b5b5;fill-opacity:1;fill-rule:evenodd;stroke:none"
         d="m 1373.5,755.313 c 96.85,20.39 372.55,89.98 436.6,205.89 1.55,-2.66 2.22,-5.543 3.11,-7.98 -18.84,-113.914 -356.16,-235.582 -439.71,-197.91" /><path
         id="path94"
         style="fill:#abaaaa;fill-opacity:1;fill-rule:evenodd;stroke:none"
         d="m 1378.38,755.977 c 95.07,20.832 361.69,87.765 428.4,201.015 1.99,-1.992 3.32,-3.769 3.99,-5.765 -22.83,-109.481 -346.84,-226.278 -432.39,-195.25" /><path
         id="path96"
         style="fill:#a3a1a1;fill-opacity:1;fill-rule:evenodd;stroke:none"
         d="m 1383.03,757.309 c 93.31,20.832 351.06,84.66 420.65,195.25 1.99,-0.887 3.54,-1.993 4.65,-2.883 -27.04,-105.715 -337.54,-217.188 -425.3,-192.367" /><path
         id="path98"
         style="fill:#989696;fill-opacity:1;fill-rule:evenodd;stroke:none"
         d="m 1387.91,757.973 c 91.75,21.277 340.19,82.886 412.88,190.597 2,-0.445 4,-0.445 5.32,-0.886 -31.25,-101.504 -328.45,-208.106 -418.2,-189.711" /><path
         id="path100"
         style="fill:#8f8d8d;fill-opacity:1;fill-rule:evenodd;stroke:none"
         d="m 1392.78,759.301 c 89.98,21.054 329.11,80.008 404.91,184.836 2.22,0.445 4.44,1.109 5.99,1.996 -35.24,-97.738 -319.37,-198.797 -410.9,-186.832" /><path
         id="path102"
         style="fill:#848182;fill-opacity:1;fill-rule:evenodd;stroke:none"
         d="m 1397.44,760.41 c 88.2,21.278 318.47,77.348 397.37,179.297 2.44,1.547 4.87,3.098 6.87,4.875 -39.67,-93.75 -310.94,-190.156 -404.24,-184.172" /><path
         id="path104"
         style="fill:#7b7979;fill-opacity:1;fill-rule:evenodd;stroke:none"
         d="m 1402.31,761.297 c 86.44,21.5 307.62,74.687 389.4,173.976 2.66,2.438 5.09,4.875 7.53,7.313 -44.1,-89.316 -301.63,-180.625 -396.93,-181.289" /><path
         id="path106"
         style="fill:#706d6e;fill-opacity:1;fill-rule:evenodd;stroke:none"
         d="m 1407.19,762.406 c 87.54,22.16 311.16,75.574 389.61,178.407 -48.09,-85.547 -292.54,-171.536 -389.61,-178.407" /><path
         id="path108"
         style="fill:#d3d2d2;fill-opacity:1;fill-rule:evenodd;stroke:none"
         d="M 100.27,988.684 C 133.957,905.352 203.105,847.289 395.25,783.238 289.535,745.563 96.2813,888.953 100.27,988.684" /><path
         id="path110"
         style="fill:#cac9c9;fill-opacity:1;fill-rule:evenodd;stroke:none"
         d="M 383.508,787.227 C 279.121,757.75 108.691,886.07 102.711,976.719 c 0,2.433 0,4.429 0,6.867 32.797,-80.004 109.703,-139.625 280.797,-196.359" /><path
         id="path112"
         style="fill:#bfbebe;fill-opacity:1;fill-rule:evenodd;stroke:none"
         d="m 372.422,791.66 c -106.379,-22.828 -261.289,98.844 -267.274,181.289 0,1.992 0,3.324 0,5.321 C 137.504,902.031 221.5,841.305 372.422,791.66" /><path
         id="path114"
         style="fill:#b6b5b5;fill-opacity:1;fill-rule:evenodd;stroke:none"
         d="m 361.121,795.648 c -108.375,-15.515 -247.996,99.29 -253.98,173.309 0,1.109 0.445,2.66 0.445,4.434 31.469,-73.356 123.223,-134.969 253.535,-177.743" /><path
         id="path116"
         style="fill:#abaaaa;fill-opacity:1;fill-rule:evenodd;stroke:none"
         d="m 350.043,800.082 c -110.594,-8.863 -234.48,99.512 -240.465,164.445 0,1.106 0.445,2.438 0.445,3.547 31.024,-69.59 129.872,-132.312 240.02,-167.992" /><path
         id="path118"
         style="fill:#a3a1a1;fill-opacity:1;fill-rule:evenodd;stroke:none"
         d="M 338.738,804.07 C 226.375,802.52 118,904.023 111.574,960.535 c 0.442,0.668 0.442,1.551 0.664,2.442 30.586,-66.489 136.965,-130.094 226.5,-158.907" /><path
         id="path120"
         style="fill:#989696;fill-opacity:1;fill-rule:evenodd;stroke:none"
         d="m 327.656,808.059 c -114.578,5.543 -207.66,100.398 -213.644,148.488 0,0.445 0.222,0.664 0.664,1.551 30.144,-63.16 143.613,-128.317 212.98,-150.039" /><path
         id="path122"
         style="fill:#8f8d8d;fill-opacity:1;fill-rule:evenodd;stroke:none"
         d="M 316.355,812.492 C 200,824.906 122.434,912.891 116.008,952.559 c 0.219,0 0.664,0 1.105,0.445 29.254,-60.063 150.485,-126.106 199.242,-140.512" /><path
         id="path124"
         style="fill:#848182;fill-opacity:1;fill-rule:evenodd;stroke:none"
         d="m 305.273,816.48 c -118.57,19.504 -180.625,101.286 -186.828,132.09 0.219,-0.445 0.664,-0.886 1.11,-0.886 28.808,-56.293 157.129,-123.668 185.718,-131.204" /><path
         id="path126"
         style="fill:#7b7979;fill-opacity:1;fill-rule:evenodd;stroke:none"
         d="M 293.527,820.914 C 173.629,847.289 127.086,922.199 120.66,944.137 c 0,-0.442 0.887,-1.332 1.332,-1.551 27.922,-52.965 164,-121.231 171.535,-121.672" /><path
         id="path128"
         style="fill:#706d6e;fill-opacity:1;fill-rule:evenodd;stroke:none"
         d="M 122.656,938.816 C 146.367,889.176 295.52,816.926 282.445,823.574 160.328,856.816 129.082,925.301 122.656,938.816" /><path
         id="path130"
         style="fill:#d3d2d2;fill-opacity:1;fill-rule:evenodd;stroke:none"
         d="m 1229.89,697.246 c 105.72,14.406 153.59,37.899 150.48,46.102 -2.88,6.644 -162.01,-15.739 -154.47,-14.407 -139.62,-20.168 -148.04,-10.418 -150.04,-26.152 -2,-19.504 34.35,-21.941 154.03,-5.543" /><path
         id="path132"
         style="fill:#d5d4d5;fill-opacity:1;fill-rule:evenodd;stroke:none"
         d="m 1089.82,698.355 c -0.66,14.407 -2.43,14.184 111.7,26.817 8.87,0.887 21.5,3.324 30.81,4.879 -8.87,-1.555 134.74,18.39 136.3,10.414 2.88,-13.297 -76.24,-35.68 -169.55,-47.649 -100.83,-12.414 -108.81,-2.437 -109.26,5.539" /><path
         id="path134"
         style="fill:#d7d7d7;fill-opacity:1;fill-rule:evenodd;stroke:none"
         d="m 1109.55,698.801 c -0.89,13.738 3.54,16.844 97.07,27.258 8.2,0.886 144.94,20.39 145.38,10.418 0,-9.532 -53.19,-32.137 -144.5,-42.11 -95.52,-10.418 -97.51,-3.547 -97.95,4.434" /><path
         id="path136"
         style="fill:#dad9d9;fill-opacity:1;fill-rule:evenodd;stroke:none"
         d="m 1123.51,699.242 c -0.88,12.856 -3.99,16.844 85.1,26.817 6.87,0.886 13.74,1.55 20.84,2.882 -6.43,-1.332 107.26,11.969 108.15,4.207 0,-2.656 -2.44,-7.976 -13.96,-13.074 -10.86,-4.875 -41.67,-16.398 -92.86,-22.828 -8.43,-0.883 -26.82,-2.879 -34.8,-3.101 -64.49,-4.434 -72.03,-3.989 -72.47,5.097" /><path
         id="path138"
         style="fill:#dcdbdb;fill-opacity:1;fill-rule:evenodd;stroke:none"
         d="m 1141.91,700.793 c -0.89,11.305 0.88,17.953 69.59,25.711 5.54,0.664 11.96,1.551 17.95,2.437 -5.1,-0.886 92.86,8.422 93.75,1.11 0.66,-11.305 -44.11,-26.375 -88.43,-31.918 -7.32,-0.887 -18.4,-2.438 -25.27,-2.879 -60.5,-3.547 -67.15,-4.875 -67.59,5.539" /><path
         id="path140"
         style="fill:#deddde;fill-opacity:1;fill-rule:evenodd;stroke:none"
         d="m 1156.31,700.352 c -0.89,11.746 -6.87,19.281 57.18,26.593 4.87,0.223 9.97,1.11 15.29,1.996 -3.99,-0.886 79.12,4.653 80.01,-1.996 1.1,-8.422 -40.56,-24.824 -77.57,-29.254 -6.2,-0.886 -12.19,-1.554 -18.17,-1.996 -45.66,-3.547 -56.3,-4.429 -56.74,4.657" /><path
         id="path142"
         style="fill:#e0e0e0;fill-opacity:1;fill-rule:evenodd;stroke:none"
         d="m 1171.16,702.789 c -0.45,10.418 0.44,19.281 45.21,24.379 3.99,0.441 7.98,0.887 12.41,1.773 -3.32,-0.886 65.16,1.11 65.6,-5.765 0.67,-7.531 -32.8,-21.496 -62.94,-25.485 -5.1,-0.886 -9.97,-1.328 -14.63,-1.554 -31.25,-1.992 -45.21,-1.992 -45.65,6.652" /><path
         id="path144"
         style="fill:#e2e2e2;fill-opacity:1;fill-rule:evenodd;stroke:none"
         d="m 1185.12,704.34 c -0.44,10.418 -3.99,18.836 34.8,23.269 3.1,0.446 6.42,0.887 9.53,1.332 -1.56,-0.445 49.2,-2.437 50.97,-8.867 1.11,-5.539 -25.26,-19.281 -48.54,-22.383 -3.99,-0.886 -7.97,-1.328 -11.52,-1.328 -9.97,-0.668 -34.35,-3.547 -35.24,7.977" /><path
         id="path146"
         style="fill:#e5e4e4;fill-opacity:1;fill-rule:evenodd;stroke:none"
         d="m 1197.09,704.785 c -0.89,4.434 -5.98,19.281 23.71,22.824 2,0 3.99,0.446 6.21,0.887 -0.22,-0.441 38.56,-1.551 39.01,-11.746 0.21,-7.09 -17.73,-16.621 -33.69,-19.059 -3.33,-0.445 -5.54,-0.886 -8.42,-0.886 2.88,0 -25.94,-2.438 -26.82,7.98" /><path
         id="path148"
         style="fill:#e7e6e6;fill-opacity:1;fill-rule:evenodd;stroke:none"
         d="m 1207.06,708.105 c -1.55,15.961 3.55,17.512 17.29,19.063 1.11,0 2.44,0.441 3.54,0.441 0.89,-0.441 22.39,1.551 23.72,-13.961 0.22,-8.421 -10.2,-13.96 -19.28,-15.957 -1.55,-0.445 -3.33,-0.445 -4.88,-0.445 -13.96,-1.109 -19.5,1.996 -20.39,10.859" /><path
         id="path150"
         style="fill:#e9e9e9;fill-opacity:1;fill-rule:evenodd;stroke:none"
         d="m 1231.22,697.246 c 1.11,0.445 9.09,1.996 7.98,17.289 -1.33,15.07 -10.86,12.41 -12.19,12.41 -1.11,-0.441 -9.53,1.11 -7.98,-16.402 0.89,-11.301 10.86,-13.297 12.19,-13.297" /><path
         id="path152"
         style="fill:#706d6e;fill-opacity:1;fill-rule:evenodd;stroke:none"
         d="M 118.664,1086.64 C 92.7344,1038.99 68.3555,966.078 198.008,875.215 330.316,782.129 541.523,753.762 540.859,751.324 403.672,772.156 215.516,838.422 142.379,913.773 54.6172,1003.53 118.445,1083.54 118.664,1086.64" /><path
         id="path154"
         style="fill:#706d6e;fill-opacity:1;fill-rule:evenodd;stroke:none"
         d="m 1831.6,1037.44 c 2.88,-49.643 -19.28,-104.608 -138.51,-172.866 -81.12,-46.539 -215.2,-82.222 -289.45,-102.168 122.78,20.832 261.52,71.582 338.42,125.66 72.7,51.641 97.07,99.731 89.54,149.374" /><path
         id="path156"
         style="fill:#ffffff;fill-opacity:1;fill-rule:evenodd;stroke:none"
         d="m 964.16,763.957 c 447.02,-2.66 825.77,132.973 825.77,299.193 0,167.1 -384.29,274.81 -831.309,274.81 -446.57,0 -811.808,-135.63 -811.808,-302.51 0,-166.665 398.48,-269.055 817.347,-271.493" /><path
         id="path158"
         style="fill:#231f20;fill-opacity:1;fill-rule:evenodd;stroke:none"
         d="M 1735.64,1046.75 C 1727.21,851.719 1258.26,764.398 905.211,774.375 512.492,785.676 183.602,888.508 198.449,1042.98 c 24.379,256.86 753.524,271.27 764.606,271.27 404.015,-2 779.455,-110.37 772.585,-267.5" /><path
         id="path160"
         style="fill:#ffffff;fill-opacity:1;fill-rule:evenodd;stroke:none"
         d="m 936.457,1286.32 c 423.973,3.11 751.083,-101.5 754.633,-228.49 5.32,-174.197 -412.66,-252.873 -729.145,-252.873 -437.043,0 -740.004,113.027 -720.718,240.903 27.476,181.96 488.015,238.91 695.23,240.46" /><path
         id="path162"
         style="fill:#231f20;fill-opacity:1;fill-rule:evenodd;stroke:none"
         d="m 943.328,1274.36 c 390.502,6.43 728.702,-96.85 734.242,-216.53 7.98,-178.85 -474.05,-240.24 -710.527,-239.353 -285.008,1.109 -708.754,57.179 -708.754,224.283 0,139.62 348.836,226.28 685.039,231.6" /><path
         id="path164"
         style="fill:#ffffff;fill-opacity:1;fill-rule:evenodd;stroke:none"
         d="m 1719.68,1166.65 c -5.98,1.99 -8.42,9.75 -6.87,17.28 15.29,4.44 51.19,-29.91 69.59,-45.21 23.27,-19.94 8.86,-42.33 -15.51,-6.87 -9.31,13.74 -37.68,31.25 -47.21,34.8" /><path
         id="path166"
         style="fill:#868484;fill-opacity:1;fill-rule:evenodd;stroke:none"
         d="m 1311.23,1313.14 c 118.79,-17.51 329.11,-75.57 400.03,-133.19 -33.25,32.8 -176.42,101.28 -400.03,133.19" /><path
         id="path168"
         style="fill:#231f20;fill-opacity:1;fill-rule:evenodd;stroke:none"
         d="m 135.063,1094.4 c 0.445,-1.33 -1.106,46.32 147.382,119.01 121.45,60.06 340.418,96.63 359.254,98.18 -128.097,-22.38 -215.422,-44.1 -318.476,-85.77 -152.918,-61.61 -186.825,-134.75 -188.16,-131.42" /><path
         id="path170"
         style="fill:#231f20;fill-opacity:1;fill-rule:evenodd;stroke:none"
         d="m 215.516,1154.24 c -34.352,-36.79 -73.137,-55.85 -67.598,-132.76 5.984,-76.234 118.793,-127.429 136.078,-136.515 17.067,-9.309 113.918,-54.965 288.777,-87.32 278.137,-50.754 505.527,-29.477 559.157,-26.375 273.71,15.957 460.09,82.886 554.06,147.16 27.93,19.726 145.61,91.53 86.44,205.89 59.61,-77.57 43.21,-106.38 35.9,-128.101 12.85,20.391 12.19,34.571 14.19,61.171 6.64,-24.6 5.98,-83.777 -51.2,-129.652 C 1730.1,894.496 1696.85,857.262 1506.26,798.973 1315.88,740.91 1142.35,722.516 943.773,721.184 744.754,720.52 564.352,743.348 416.086,788.113 267.598,832.438 186.703,897.375 165.871,923.75 c -22.387,28.809 -43.437,58.504 -37.234,120.56 6.871,66.49 88.875,107.49 86.879,109.93" /><path
         id="path172"
         style="fill:#ffffff;fill-opacity:1;fill-rule:evenodd;stroke:none"
         d="m 735.223,1158.67 c -19.942,-24.38 -36.789,-37.68 -57.18,-37.68 -20.832,0 -36.125,24.6 -17.953,49.43 18.398,25.04 49.867,45.87 97.961,45.43 33.074,-0.46 76.719,-5.84 120.926,-15.24 -0.59,-1.31 -1.965,-2.59 -4.571,-3.82 -27.039,-12.41 -85.105,-69.37 -102.394,-101.73 -46.317,-3.54 -64.27,-10.86 -75.571,-21.93 -5.101,-5.55 0.442,-14.41 5.539,-10.42 4.875,3.99 31.247,17.28 50.528,16.4 5.984,-0.45 2.66,-5.32 1.109,-7.32 -2.879,-4.65 -47.871,-59.17 -73.578,-81.11 -25.707,-20.614 -37.234,-33.688 -78.898,-34.578 -37.899,-0.442 -57.844,57.848 -4.653,92.198 12.41,7.98 15.071,11.97 10.414,17.51 -4.871,5.32 -12.41,5.76 -23.269,1.77 -10.418,-4.43 -54.078,-22.83 -58.512,-77.791 -4.207,-54.961 41.227,-80.004 74.914,-82.883 33.688,-2.437 81.113,16.844 112.805,57.621 31.691,40.113 74.91,104.603 82,115.023 5.543,7.98 13.297,6.43 20.39,6.65 6.809,0.44 30.379,2.4 55.387,6.75 5.867,-9.7 15.508,-13.52 19.078,-14.95 10.418,-5.32 13.965,1.55 7.981,6.2 -3.012,2.33 -7.965,6.43 -11.785,12.5 16.199,5.14 26.254,13.16 29.734,27.62 4.879,18.39 -7.09,23.93 -17.504,24.82 -10.863,0.66 -30.254,-8.42 -32.137,-34.13 -0.285,-3.86 0.075,-7.59 0.532,-11.38 -3.735,-0.57 -7.868,-0.99 -12.5,-1.25 -33.465,-2 -34.797,-2.88 -37.457,-2.44 -2.879,0.44 -9.75,-0.44 -3.325,8.86 6.43,9.09 43.219,60.29 75.579,78.02 5.195,2.88 6.539,6.67 6.507,10.14 14.035,-3.29 28.004,-6.98 41.582,-11.03 48.09,-13.3 164.228,-56.51 228.938,1.55 24.16,21.94 2.44,27.26 -4.43,25.71 -49.2,-10.86 -87.99,-12.41 -112.81,-12.41 -64.272,0.66 -205.444,32.35 -273.264,32.8 -68.481,1.99 -160.453,-22.38 -164.223,-98.18 -1.996,-33.47 18.621,-50.31 42.996,-54.3 23.934,-3.99 68.039,18.84 85.547,54.3 17.949,36.12 0.887,28.81 -4.433,23.27 z m 146.261,-51.71 c 11.309,3.77 15.032,8.67 17.297,10.93 3.328,3.55 10.864,22.38 -2.215,22.83 -13.296,0 -18.171,-16.84 -15.734,-30.36 0.168,-1.17 0.387,-2.31 0.652,-3.4 z m 22.176,-45.81 c 1.551,-3.76 2.879,-5.31 -13.519,-11.74 -32.805,-14.63 -55.629,-49.422 -58.067,-74.023 -0.886,-7.313 -1.996,-34.574 27.703,-35.239 42.993,0 62.278,59.395 64.27,69.812 1.551,10.42 0.445,25.04 -0.445,29.47 -0.661,4.44 -6.645,9.98 -2.657,15.96 0.664,1.77 5.985,10.86 18.84,10.42 12.41,-0.22 14.403,-33.91 14.848,-37.9 0,-3.55 0.441,-7.98 4.433,-2.88 3.989,5.76 36.786,36.12 46.094,42.11 8.2,5.54 16.63,9.97 33.47,9.53 15.95,-0.44 22.82,-15.96 21.28,-32.8 -0.45,-1.99 1.1,-7.09 4.43,-3.1 8.64,11.52 25.93,30.8 51.63,30.36 21.5,0 27.04,-16.84 27.04,-28.37 -0.22,-11.74 -5.98,-28.15 -26.81,-26.37 -20.62,1.55 -19.51,21.49 -19.51,23.04 0.45,1.56 0.45,7.76 -4.87,2.45 -5.1,-4.88 -10.64,-17.96 -13.52,-31.7 -2.44,-13.075 13.52,-35.239 37.67,-20.61 27.04,16.4 62.28,47.43 76.24,58.73 7.98,6.2 18.62,11.75 30.36,15.51 8.65,2.44 17.96,3.99 27.04,3.77 20.62,-0.44 30.37,-10.42 33.91,-19.28 3.55,-8.87 5.1,-13.3 8.42,-7.31 3.55,6.2 63.61,96.18 66.05,100.17 2.65,3.55 4.43,7.09 9.53,6.43 4.87,-0.89 17.73,-1.77 23.27,-2.44 5.1,-0.88 12.41,1.55 7.09,-7.54 -6.65,-13.29 -109.48,-171.09 -115.91,-181.95 -6.43,-10.859 -3.32,-19.941 0.44,-21.937 3.11,-2.438 6.21,-5.985 25.05,4.433 19.28,10.414 52.97,46.094 57.18,51.633 4.43,5.766 9.31,0.445 11.3,-1.105 1.99,-1.551 4.88,-5.098 1.55,-9.309 -15.51,-19.727 -67.15,-77.789 -102.39,-75.793 -28.37,1.77 -32.35,22.824 -32.35,29.25 0.44,3.547 -2.89,5.766 -5.32,2.441 -1.11,-1.55 -6.65,-6.871 -14.86,-12.632 -10.86,-7.313 -26.37,-15.516 -42.32,-16.18 -37.9,-1.551 -44.33,42.109 -43.89,50.086 0,7.535 3.11,18.394 4,20.172 0.66,1.992 0.44,7.086 -4.44,2.656 -5.32,-4.434 -36.12,-25.707 -57.62,-15.734 -21.72,9.972 -18.84,31.027 -18.39,34.129 0,2.88 -0.45,5.76 -4,0.441 -3.32,-5.094 -46.53,-72.023 -50.08,-77.785 -3.55,-5.543 -5.986,-9.09 -12.416,-9.973 -5.984,-0.668 -24.379,0.442 -27.476,0.442 -3.329,0.441 -7.981,0 -2.438,7.98 5.535,7.977 56.29,91.085 63.16,104.605 6.87,13.52 0,19.28 -2.88,20.83 -2.66,1.99 -5.98,4.43 -27.928,-11.97 -25.485,-19.72 -58.95,-71.36 -84.215,-97.512 -25.262,-25.484 -50.309,-28.367 -64.27,-27.922 -14.406,0.442 -35.238,1.992 -52.082,46.098 -5.543,-7.758 -23.715,-22.164 -27.703,-24.602 -3.992,-1.996 -5.984,-2.656 -7.535,-1.105 -1.555,1.551 -2.442,2.879 -3.992,5.98 -1.992,3.102 -2.438,6.43 0,8.868 11.304,13.074 31.695,28.808 36.793,42.996 17.949,48.749 59.617,86.429 98.843,83.549 9.973,-0.44 10.418,-3.99 11.969,-7.54 z m 318.91,-27.48 c -22.38,-16.4 -40.55,-46.537 -42.77,-62.053 -0.66,-7.976 -5.1,-36.344 17.73,-36.344 7.76,0.223 16.4,5.098 25.04,12.411 16.63,14.183 33.03,37.011 43.45,51.859 -1.78,0.667 -6.88,4.437 -5.32,7.537 1.33,1.55 3.54,13.96 3.98,18.83 0.45,4.88 -2.43,28.38 -29.91,15.08 -4.22,-1.78 -8.2,-4.44 -12.2,-7.32" /></g></g></svg>