<?xml version="1.0" encoding="UTF-8" standalone="no"?>
<svg
   xmlns:dc="http://purl.org/dc/elements/1.1/"
   xmlns:cc="http://creativecommons.org/ns#"
   xmlns:rdf="http://www.w3.org/1999/02/22-rdf-syntax-ns#"
   xmlns:svg="http://www.w3.org/2000/svg"
   xmlns="http://www.w3.org/2000/svg"
   viewBox="0 0 258.66666 258.66666"
   height="258.66666"
   width="258.66666"
   xml:space="preserve"
   id="svg2"
   version="1.1"><metadata
     id="metadata8"><rdf:RDF><cc:Work
         rdf:about=""><dc:format>image/svg+xml</dc:format><dc:type
           rdf:resource="http://purl.org/dc/dcmitype/StillImage" /></cc:Work></rdf:RDF></metadata><defs
     id="defs6" /><g
     transform="matrix(1.3333333,0,0,-1.3333333,0,258.66667)"
     id="g10"><g
       transform="scale(0.1)"
       id="g12"><path
         id="path14"
         style="fill:#ffffff;fill-opacity:1;fill-rule:evenodd;stroke:none"
         d="M 2.59766,1933.23 H 1930.16 V 5.66797 H 2.59766 V 1933.23" /><path
         id="path16"
         style="fill:#231f20;fill-opacity:1;fill-rule:evenodd;stroke:none"
         d="m 966.379,90.707 c -485.305,0 -878.7423,393.438 -878.7423,878.742 0,485.311 393.4373,878.741 878.7423,878.741 485.311,0 878.741,-393.43 878.741,-878.741 0,-485.304 -393.43,-878.742 -878.741,-878.742" /><path
         id="path18"
         style="fill:#ffffff;fill-opacity:1;fill-rule:evenodd;stroke:none"
         d="M 966.613,836.699 253.18,541.406 C 403.496,288.844 675.902,134.711 969.668,136.234 1262.67,137 1534.31,292.656 1683.1,545.988 L 966.613,836.699" /><path
         id="path20"
         style="fill:#ffffff;fill-opacity:1;fill-rule:evenodd;stroke:none"
         d="m 843.043,1045.26 113.691,753.11 C 663.73,1794.55 393.617,1636.6 247.113,1382.52 99.8477,1128.43 98.3203,815.586 242.535,559.969 l 600.508,485.291" /><path
         id="path22"
         style="fill:#ffffff;fill-opacity:1;fill-rule:evenodd;stroke:none"
         d="m 1086.4,1035.27 607.38,-470.032 c 141.16,255.617 138.1,566.172 -9.16,818.732 -146.5,252.56 -414.33,409.75 -706.569,414.33 L 1086.4,1035.27" /></g></g></svg>