<?xml version="1.0" encoding="UTF-8" standalone="no"?>
<svg
   xmlns:dc="http://purl.org/dc/elements/1.1/"
   xmlns:cc="http://creativecommons.org/ns#"
   xmlns:rdf="http://www.w3.org/1999/02/22-rdf-syntax-ns#"
   xmlns:svg="http://www.w3.org/2000/svg"
   xmlns="http://www.w3.org/2000/svg"
   viewBox="0 0 258.66666 258.66666"
   height="258.66666"
   width="258.66666"
   xml:space="preserve"
   id="svg2"
   version="1.1"><metadata
     id="metadata8"><rdf:RDF><cc:Work
         rdf:about=""><dc:format>image/svg+xml</dc:format><dc:type
           rdf:resource="http://purl.org/dc/dcmitype/StillImage" /></cc:Work></rdf:RDF></metadata><defs
     id="defs6" /><g
     transform="matrix(1.3333333,0,0,-1.3333333,0,258.66667)"
     id="g10"><g
       transform="scale(0.1)"
       id="g12"><path
         id="path14"
         style="fill:#ffffff;fill-opacity:1;fill-rule:evenodd;stroke:none"
         d="M 2.59766,1933.23 H 1930.16 V 5.66797 H 2.59766 V 1933.23" /><path
         id="path16"
         style="fill:#231f20;fill-opacity:1;fill-rule:evenodd;stroke:none"
         d="M 523.777,1185.9 H 119.938 c 0,0 -95.4458,-0.66 -88.6489,-111.61 L 523.777,975.402 v 32.668 L 90.2383,1066.38 H 523.777 v 119.52" /><path
         id="path18"
         style="fill:#231f20;fill-opacity:1;fill-rule:evenodd;stroke:none"
         d="M 31.4805,753.938 H 435.168 c 0,0 95.41,0.656 88.609,111.609 L 31.4805,964.434 v -1.278 L 391.637,873.461 H 31.4805 V 753.938" /><path
         id="path20"
         style="fill:#231f20;fill-opacity:1;fill-rule:evenodd;stroke:none"
         d="M 33.582,993.707 523.777,883.824 v 32.653 l -431.4372,68 -58.7578,9.23" /><path
         id="path22"
         style="fill:#231f20;fill-opacity:1;fill-rule:evenodd;stroke:none"
         d="M 32.8516,1036.02 523.777,929.645 v 32.66 l -432.109,64.905 -58.8164,8.81" /><path
         id="path24"
         style="fill:#231f20;fill-opacity:1;fill-rule:evenodd;stroke:none"
         d="M 578.41,1185.81 H 990.414 V 1065.12 H 578.41 v 120.69" /><path
         id="path26"
         style="fill:#231f20;fill-opacity:1;fill-rule:evenodd;stroke:none"
         d="m 1133.34,1064.54 48.5,121.27 h 199.77 l 51.52,-121.79 -299.79,0.52" /><path
         id="path28"
         style="fill:#231f20;fill-opacity:1;fill-rule:evenodd;stroke:none"
         d="m 1452.08,1020 112.64,-267 h -153.98 l -74.91,145.656 H 1231.79 L 1156.88,753 H 578.41 v 120.688 24.968 120.684 H 990.414 V 898.656 H 744.875 V 873.688 H 1044.51 L 1115.84,1020 h 336.24" /><path
         id="path30"
         style="fill:#231f20;fill-opacity:1;fill-rule:evenodd;stroke:none"
         d="m 1489.81,1185.81 h 412 v -120.69 h -412 v 120.69" /><path
         id="path32"
         style="fill:#231f20;fill-opacity:1;fill-rule:evenodd;stroke:none"
         d="m 1643.79,1019.34 h 120.69 V 753 h -120.69 v 266.34" /></g></g></svg>